<svg xmlns="http://www.w3.org/2000/svg" viewBox="0 0 100 100">
    <circle cx="50" cy="50" r="48" fill="#1a1714" stroke="#8b6f47" stroke-width="3" />

    <g transform="translate(50, 50)">
        <path d="M-32 -26 L-14 6 M0 -26 L-14 6 M-14 6 L-14 34"
            stroke="#c4a882"
            stroke-width="12"
            stroke-linecap="round"
            stroke-linejoin="round"
            fill="none"
            transform="translate(6, 0) scale(1.1, 0.9)" />

        <g fill="#ffffff" transform="translate(15, -2)">
            <path d="M-14 10c-3 0-5-4-5-7 0-4 2-8 5-8s5 4 5 8c0 3-2 7-5 7z"
                transform="rotate(-15,-14,10)" />
            <path d="M-4 4c-3 0-5-5-5-8 0-5 2-10 5-10s5 5 5 10c0 3-2 8-5 8z" />
            <path d="M8 4c-3 0-5-5-5-8 0-5 2-10 5-10s5 5 5 10c0 3-2 8-5 8z" />
            <path d="M18 10c-3 0-5-4-5-7 0-4 2-8 5-8s5 4 5 8c0 3-2 7-5 7z"
                transform="rotate(15,18,10)" />
            <path d="M2 8c-11 0-18 6-18 14 0 7 8 11 18 11s18-4 18-11c0-8-7-14-18-14z" />
        </g>
    </g>
</svg>